<?xml version="1.0" encoding="UTF-8" standalone="no"?>
<!-- Created with Inkscape (http://www.inkscape.org/) -->

<svg
   width="3840"
   height="2160"
   viewBox="0 0 3840 2160"
   version="1.1"
   id="svg1"
   xml:space="preserve"
   inkscape:version="1.3.1 (91b66b0783, 2023-11-16)"
   sodipodi:docname="рисунок.svg"
   xmlns:inkscape="http://www.inkscape.org/namespaces/inkscape"
   xmlns:sodipodi="http://sodipodi.sourceforge.net/DTD/sodipodi-0.dtd"
   xmlns:xlink="http://www.w3.org/1999/xlink"
   xmlns="http://www.w3.org/2000/svg"
   xmlns:svg="http://www.w3.org/2000/svg"><sodipodi:namedview
     id="namedview1"
     pagecolor="#ffffff"
     bordercolor="#000000"
     borderopacity="0.25"
     inkscape:showpageshadow="2"
     inkscape:pageopacity="0.0"
     inkscape:pagecheckerboard="0"
     inkscape:deskcolor="#d1d1d1"
     inkscape:document-units="px"
     inkscape:zoom="0.24995907"
     inkscape:cx="1928.3157"
     inkscape:cy="1054.1726"
     inkscape:window-width="1920"
     inkscape:window-height="986"
     inkscape:window-x="-11"
     inkscape:window-y="-11"
     inkscape:window-maximized="1"
     inkscape:current-layer="layer1" /><defs
     id="defs1"><defs
       id="defs439"><g
         id="COA"><path
           d="m 2,2 v 173 a 123,123 0 0 0 246,0 V 2 Z"
           fill="#10679a"
           id="path402" /><g
           id="a1"><path
             d="m 113,35 v 40 l 12,15 V 50 Z"
             fill="#f9e098"
             stroke="#000000"
             stroke-width="2"
             id="path404" /><path
             d="M 137,35 V 75 L 125,90 V 50 Z"
             fill="#be8c32"
             stroke="#000000"
             stroke-width="2"
             id="path406" /><g
             id="f1"><path
               id="f2"
               d="m 124,53.5 v 2 l -10,-15 z" /><use
               xlink:href="#f2"
               y="5"
               id="use409" /><use
               xlink:href="#f2"
               y="10"
               id="use411" /><use
               xlink:href="#f2"
               y="15"
               id="use413" /><use
               xlink:href="#f2"
               y="20"
               id="use415" /><use
               xlink:href="#f2"
               y="25"
               id="use417" /><use
               xlink:href="#f2"
               y="30"
               id="use419" /></g><use
             xlink:href="#f1"
             transform="scale(-1,1)"
             x="-250"
             id="use422" /><g
             fill="#f9e098"
             id="g425"><path
               id="s1"
               d="M 122,194 V 45 h 6 v 149 l 10,-9 -13,50 -13,-50 z" /></g><path
             d="m 123,196 v 8 l -11,-19 z"
             fill="#be8c32"
             id="path427" /><path
             d="M 125,235 V 45 h 2 v 159 l 11,-19 z"
             fill="#be8c32"
             id="path429" /><use
             xlink:href="#s1"
             fill="none"
             stroke="#000000"
             stroke-width="2"
             id="use431" /></g><use
           xlink:href="#a1"
           transform="matrix(0.70710678,0.70710678,0.70710678,-0.70710678,117.92893,318.84776)"
           x="-250"
           id="use434" /><use
           xlink:href="#a1"
           transform="rotate(135,125,135)"
           id="use436" /></g></defs><g
       id="g14"><path
         d="m 2,2 v 173 a 123,123 0 0 0 246,0 V 2 Z"
         fill="#10679a"
         id="path1" /><g
         id="g12"><path
           d="m 113,35 v 40 l 12,15 V 50 Z"
           fill="#f9e098"
           stroke="#000000"
           stroke-width="2"
           id="path2" /><path
           d="M 137,35 V 75 L 125,90 V 50 Z"
           fill="#be8c32"
           stroke="#000000"
           stroke-width="2"
           id="path3" /><g
           id="g9"><path
             id="path4"
             d="m 124,53.5 v 2 l -10,-15 z" /><use
             xlink:href="#f2"
             y="5"
             id="use4" /><use
             xlink:href="#f2"
             y="10"
             id="use5" /><use
             xlink:href="#f2"
             y="15"
             id="use6" /><use
             xlink:href="#f2"
             y="20"
             id="use7" /><use
             xlink:href="#f2"
             y="25"
             id="use8" /><use
             xlink:href="#f2"
             y="30"
             id="use9" /></g><use
           xlink:href="#f1"
           transform="scale(-1,1)"
           x="-250"
           id="use10" /><g
           fill="#f9e098"
           id="g10"><path
             id="path10"
             d="M 122,194 V 45 h 6 v 149 l 10,-9 -13,50 -13,-50 z" /></g><path
           d="m 123,196 v 8 l -11,-19 z"
           fill="#be8c32"
           id="path11" /><path
           d="M 125,235 V 45 h 2 v 159 l 11,-19 z"
           fill="#be8c32"
           id="path12" /><use
           xlink:href="#s1"
           fill="none"
           stroke="#000000"
           stroke-width="2"
           id="use12" /></g><use
         xlink:href="#a1"
         transform="matrix(0.70710678,0.70710678,0.70710678,-0.70710678,117.92893,318.84776)"
         x="-250"
         id="use13" /><use
         xlink:href="#a1"
         transform="rotate(135,125,135)"
         id="use14" /></g></defs><g
     inkscape:groupmode="layer"
     id="layer1"
     inkscape:label="Layer 1"
     style="display:inline;fill:#8a0000;fill-opacity:1"><rect
       style="fill:#8a0000;fill-opacity:1;fill-rule:evenodd"
       id="rect39"
       width="3881.2375"
       height="2206.5342"
       x="-11.315561"
       y="-28.288902" /></g><g
     id="g15"
     transform="matrix(4.035333,0,0,4.612173,-671.37232,-546.55256)"
     style="display:inline"><g
       transform="matrix(0.89295991,0,0,0.8289143,14.547541,-89.76859)"
       id="g3804"
       style="display:inline"><g
         id="g7456"><g
           id="g2262"><g
             style="display:inline;fill:#ffcc00;stroke:#000000;stroke-opacity:0"
             id="g4"
             transform="matrix(0.6665839,0,0,0.6288383,149.34632,201.04877)"><g
               id="g8"
               inkscape:export-xdpi="81.379997"
               inkscape:export-ydpi="81.379997"
               transform="matrix(2.401943,0,0,2.567675,-252.7526,-286.0412)"
               style="fill:#ffcc00;stroke:#000000;stroke-opacity:0"><path
                 inkscape:connector-curvature="0"
                 d="m 569.38574,394.10938 c -10.77441,2.88525 -22.27148,3.81298 -32.73535,7.38134 17.72266,-15.1958 16.71094,-38.70849 28.53516,-56.60595 3.7666,-5.06739 6.87988,-10.37891 11.2705,-15.1875 -7.19238,14.42773 -4.07324,33.14648 -12.33593,47.14746 -3.18067,5.56152 -7.72949,10.95703 -12.75977,15.32519 1.64356,-0.0615 3.08203,-1.48437 4.52735,-2.43457 13.42089,-13.39258 30.9541,-17.13769 45.47168,-28.01855 5.81542,-4.63379 11.1416,-10.70606 13.69824,-17.27344 -2.74707,22.21973 -24.85254,43.0459 -45.67188,49.66602 z"
                 id="path10-3"
                 style="fill:#ffcc00;stroke:#000000;stroke-opacity:0" /><path
                 inkscape:connector-curvature="0"
                 d="m 617.73535,304.14551 c -6.5664,9.34375 -14.50976,18.04199 -20.57617,27.53808 0.67676,-7.51855 1.56738,-16.76367 -1.36133,-23.88574 -5.07519,-15.33691 -9.53418,-30.90918 -10.97265,-47.74121 l 0.19824,-6.43652 c 3.81933,17.18945 20.70508,29.00586 19.63965,48.28711 0.38671,4.67285 -1.0586,8.6455 -1.9336,12.75488 l 0.29004,0.30371 0.76074,-0.85254 c 2.50391,-9.45801 3.76758,-19.40332 7.66114,-28.22754 5.5332,-12.69824 12.44238,-25.51367 9.62695,-40.8457 8.41602,18.07617 5.86621,42.22754 -3.33301,59.10547 z"
                 id="path12-0"
                 style="fill:#ffcc00;stroke:#000000;stroke-opacity:0" /><path
                 inkscape:connector-curvature="0"
                 d="m 607.37109,206.75781 c 11.07227,15.00537 13.49903,38.91797 5.43457,56.12989 -3.00586,7.29394 -5.1289,15.0664 -6.30957,23.13964 -0.56347,-1.39257 -0.69238,-3.26464 -1.19531,-4.8164 -4.4043,-16.84766 -20.33789,-28.85449 -26.89062,-44.73877 -2.07813,-5.19434 -3.84961,-10.56153 -4.83203,-16.2002 7.00195,12.9502 24.25781,19.63916 28.96093,33.91065 1.92676,3.60937 1.81836,8.11914 3.01367,12 0.25098,0 0.50196,-0.18653 0.50196,-0.44141 -2.07031,-14.70117 -1.43848,-30.0874 0.55664,-44.60596 -0.11524,-7.86425 -0.88281,-15.49267 -5.25195,-21.58007 2.80175,1.63232 4.06347,4.76757 6.01171,7.20263 z"
                 id="path14"
                 style="fill:#ffcc00;stroke:#000000;stroke-opacity:0" /><path
                 inkscape:connector-curvature="0"
                 d="m 599.56445,203.87744 c 2.90821,13.14893 -1.33984,25.95459 1.33203,39.22998 l -0.0996,0.11426 c -7.15333,-14.06641 -22.33985,-20.70508 -32.78907,-31.96338 -6.05566,-6.68066 -8.68847,-14.82275 -10.20312,-23.44385 5.9873,14.43457 22.14355,17.61524 31.41894,29.77881 3.10352,2.8042 4.11621,6.68897 6.11719,9.86914 l 0.32715,-0.31592 c -5.33399,-11.38671 -7.1211,-24.20117 -10.84277,-36.34521 -1.86329,-5.26221 -5.56153,-10.43262 -10.52344,-13.75049 12.17578,2.48828 22.72851,15.19971 25.26269,26.82666 z"
                 id="path16"
                 style="fill:#ffcc00;stroke:#000000;stroke-opacity:0" /><path
                 inkscape:connector-curvature="0"
                 d="m 567.01172,173.72168 c 9.16992,8.20703 13.31738,18.8335 15.99512,29.84375 l 1.51464,3.49658 c -13.30957,-9.57226 -25.40039,-22.43994 -33.89941,-36.02978 l -10.37988,-10.50098 c 9.125,3.86914 18.96289,6.17871 26.76953,13.19043 z"
                 id="path18"
                 style="fill:#ffcc00;stroke:#000000;stroke-opacity:0" /><path
                 inkscape:connector-curvature="0"
                 d="m 356.80566,162.27393 c -9.20019,8.06543 -15.58105,18.26562 -22.40625,27.77734 -6.11816,7.57519 -13.94433,12.57031 -20.87988,19.08447 3.74414,-7.76172 3.88086,-17.0332 9.19141,-24.16308 7.55664,-13.1836 21.56933,-17.82178 34.09472,-22.69873 z"
                 id="path20"
                 style="fill:#ffcc00;stroke:#000000;stroke-opacity:0" /><path
                 inkscape:connector-curvature="0"
                 d="m 306.49219,190.35986 c 4.47461,-5.5625 10.14746,-9.42822 16.53125,-11.06054 -12.39551,8.51513 -11.58887,23.7749 -15.51856,36.46045 -1.25293,4.69091 -3.42871,9.01269 -4.51269,13.82128 l 0.31543,0.25098 c 2.0625,-5.43603 5.6875,-10.57226 10.21191,-15.00781 8.80371,-8.12695 21.82715,-13.1919 26.1416,-25.21387 -0.19726,16.70606 -14.13379,29.83985 -27.46875,39.22901 -5.49902,4.82421 -10.80175,10.32226 -13.83008,16.52392 -0.29687,-4.21484 0.62305,-8.44678 0.32325,-12.96191 -1.4502,-14.5835 -2.50391,-31.22901 7.80664,-42.04151 z"
                 id="path22"
                 style="fill:#ffcc00;stroke:#000000;stroke-opacity:0" /><path
                 inkscape:connector-curvature="0"
                 d="m 281.41211,240.22754 c -0.37305,-14.77832 5.76074,-26.8418 14.4043,-37.85303 0.25097,-0.12549 0.42968,-0.37646 0.75293,-0.31592 -9.51465,14.4585 -1.64356,32.67041 -2.07715,49.11036 l -1.25489,16.83203 c 0.18653,0.12207 0.18653,0.62793 0.62793,0.43359 0.5625,-1.87598 0.68457,-3.88086 1.06055,-5.81055 2.24121,-13.57714 14.03223,-23.21093 24.33106,-32.59375 2.19921,-2.4541 4.14355,-4.9458 5.27343,-7.82568 -0.84082,6.76025 -2.95996,13.57861 -5.76464,19.83057 -8.01563,15.63183 -22.82325,28.458 -25.52833,46.35449 -1.3125,-17.15039 -12.98925,-29.97266 -11.82519,-48.16211 z"
                 id="path24"
                 style="fill:#ffcc00;stroke:#000000;stroke-opacity:0" /><path
                 inkscape:connector-curvature="0"
                 d="m 274.21387,261.24316 c 1.06543,-4.62207 1.87988,-9.40527 3.8916,-13.64648 -3.81152,19.53711 9.3291,33.61426 13.63965,50.54883 1.80371,6.33398 2.24511,13.13672 4.82422,19.08008 0.24023,0.12988 0.44921,-0.1211 0.59765,-0.31153 -6.41797,-17.98926 2.84668,-34.70605 12.15625,-48.79101 2.26367,-3.81641 3.56836,-8.06641 4.69434,-12.45313 0.98926,8.1416 -1.06934,17.51758 -2.25195,25.97071 -2.26368,10.75585 -5.64258,20.95605 -8.58399,31.39257 -1.93555,6.52149 -1.42676,13.87891 -0.43262,20.71192 L 301.81641,333 c -6.8252,-12.58594 -20.33985,-22.40234 -24.35352,-36.15234 -3.30273,-10.96192 -5.49805,-23.66016 -3.24902,-35.6045 z"
                 id="path26"
                 style="fill:#ffcc00;stroke:#000000;stroke-opacity:0" /><path
                 inkscape:connector-curvature="0"
                 d="m 273.59766,299.40137 c 1.50293,20.70801 23.77148,31.65039 34.09375,48.79394 2.44238,3.50782 4.56152,7.38867 7.82519,10.3252 -0.50976,-2.20606 -2.56836,-4.0625 -3.32422,-6.32227 -3.61133,-7.19043 -4.92773,-15.75879 -4.05957,-24.44922 1,-10.57714 5.43653,-20.39257 3.74317,-31.51757 9.07031,19.55664 6.31543,43.96679 11.38672,65.1582 1.32812,4.63476 4.01074,8.77344 5.76855,13.20312 -18.63574,-12.69238 -44.04687,-24.76855 -52.31445,-48.03027 -3.48438,-8.02051 -3.87305,-17.9502 -3.11914,-27.16113 z"
                 id="path28"
                 style="fill:#ffcc00;stroke:#000000;stroke-opacity:0" /><path
                 inkscape:connector-curvature="0"
                 d="m 284.72949,346.95508 c 10.39063,23.50586 36.41406,25.45312 53.86231,39.7666 3.21093,2.8457 6.57519,5.26562 10.20019,6.9541 l 0.18653,-0.18945 c -4.00586,-3.62207 -8.63965,-7.74707 -11.44434,-12.44141 -10.21191,-14.19922 -6.62012,-34.08984 -14.27148,-49.36133 6.95214,8.31641 13.27441,16.96094 17.47168,26.39551 6.24316,15.40137 8.6289,32.79688 23.07519,44.43897 -15.63379,-5.15235 -33.94922,-3.71289 -47.74805,-13.33936 -15.0664,-9.25976 -28.51269,-24.96582 -31.33203,-42.22363 z"
                 id="path30"
                 style="fill:#ffcc00;stroke:#000000;stroke-opacity:0" /><path
                 inkscape:connector-curvature="0"
                 d="m 311.43457,390.80664 c 16.66016,18.94775 43.88281,12.62549 66.0752,17.58447 3.13476,0.42774 6.0039,1.6836 9.32617,1.17383 -2.64551,-1.67383 -6.31641,-1.49219 -9.2041,-3.01367 -17.39551,-6.11133 -19.94727,-24.94385 -29.39063,-37.64307 12.06445,8.01172 22.20703,18.81739 33.33692,29.2876 8,7.00781 17.62988,10.24219 27.77636,12.30469 -2.43847,0.89062 -5.63476,0.64648 -8.25195,1.33203 -18.22852,4.48242 -38.48047,11.80859 -57.81152,5.25 -12.56739,-3.95703 -25.53321,-13.89453 -31.85645,-26.27588 z"
                 id="path32"
                 style="fill:#ffcc00;stroke:#000000;stroke-opacity:0" /><path
                 inkscape:connector-curvature="0"
                 d="m 537.55664,434.97314 c -18.77344,7.00586 -38.36621,-0.32031 -53.0293,-11.43945 -5.93652,-3.77344 -11.16992,-9.20703 -18.84863,-8.72656 -2.78516,-0.0527 -5.4707,0.084 -7.83789,0.76758 14.24512,6.6289 27.47754,15.76758 39.57617,27.45508 -2.03906,2.32812 -4.67969,4.50585 -7.16699,6.51367 -11.65918,-12.5625 -24.57129,-24.6543 -39.02832,-31.7168 -2.83105,0.36719 -5.52441,2.07031 -8.07715,3.44141 -11.76953,7.4414 -23.40723,17.01367 -32.15723,28.73242 l -7.51855,-6.20899 c 12,-12.13867 25.27344,-21.58789 39.79395,-28.33789 -14.26856,-4.51953 -23.58204,7.4336 -34.41309,13.51368 -12.62109,8.8125 -30.77246,12.95117 -46.02539,6.87109 -8.20313,-3.11133 -16.15039,-7.69336 -22.08984,-15.14063 12.0039,8.26954 29.88183,9.13672 43.5332,3.76563 18.31836,-7.94531 37.35351,-18.01758 59.43652,-13.20117 3.44629,0.0605 6.79492,3.49218 10.05078,0.57031 16.41309,-4.26172 34.99512,-1.33203 49.12598,6.16992 l 14.56445,5.83789 c 13.53711,5.00586 31.03907,3.6211 42.64258,-4.62695 -5.96582,7.42578 -14.11523,12.74609 -22.53125,15.75976 z"
                 id="path34"
                 style="fill:#ffcc00;stroke:#000000;stroke-opacity:0" /><path
                 inkscape:connector-curvature="0"
                 d="m 557.6748,415.57471 c -21.07812,7.95898 -42.2832,-1.81055 -62.47949,-5.07422 l -3.88867,-0.49414 v -0.12305 c 9.65723,-2.19141 19.03125,-5.06641 26.71777,-12.00586 11.32129,-10.88232 21.39551,-22.08349 33.96778,-30.65869 -9.32324,11.9541 -10.31153,28.96924 -25.71289,36.65479 -3.81153,2.49414 -8.62207,2.93554 -12.55567,4.82421 5.60938,0.1211 10.74512,-1.88867 16.29981,-2.45117 20.65234,-3.24219 44.27832,0.084 58.7666,-17.50928 -5.37891,12.25928 -18.84961,22.52491 -31.11524,26.83741 z"
                 id="path36"
                 style="fill:#ffcc00;stroke:#000000;stroke-opacity:0" /><path
                 inkscape:connector-curvature="0"
                 d="m 595.97266,356.26855 c -8.32422,5.44825 -16.76172,10.50098 -24.76075,16.69532 v -0.76074 c 12.25196,-20.36231 6.2627,-48.33497 13.81153,-70.74415 l 2.81543,-7.50683 c -1.5752,13.95996 4.48828,25.78515 4.0625,39.79297 -0.42578,8.46191 -3.1875,15.96484 -7.63086,22.72168 h 0.75293 c 6.00293,-7.88379 10.69043,-16.26856 17.70605,-23.77832 10.88965,-10.50098 21.96094,-21.26856 23.39063,-35.84082 3.69824,24.32714 -9.95215,45.64843 -30.14746,59.42089 z"
                 id="path38"
                 style="fill:#ffcc00;stroke:#000000;stroke-opacity:0" /></g></g></g></g></g></g><g
     id="g39"
     transform="matrix(-1.2659578,1.3428386,-1.349839,-1.1201851,2420.5142,1250.325)"
     style="fill:#ffcc00;fill-opacity:1"><path
       fill="#d6312a"
       d="m 280.29,118.49 c 6.69,4.32 13.06,9.12 19.74,13.45 1.2,0.9 2.84,1.16 4.06,0.1 6.17,-4.25 11.65,-9.51 18.2,-13.24 0.05,5.73 0.05,11.46 0.01,17.19 -6.69,4.26 -13.06,9.15 -20.09,12.82 -4.18,-1.48 -7.73,-4.27 -11.57,-6.43 -3.39,-2.17 -7.18,-3.79 -10.19,-6.49 -0.48,-5.78 -0.06,-11.6 -0.16,-17.4 z"
       id="path2482"
       style="fill:#ffcc00;fill-opacity:1" /><path
       fill="#d6312a"
       d="m 280.32,153.41 c -0.06,-5.17 -0.1,-10.35 0.07,-15.52 6.68,4.96 13.51,9.75 20.46,14.33 1.53,1.29 3.07,-0.3 4.3,-1.18 5.02,-4 10.21,-7.75 15.24,-11.73 0.5,-0.02 1.49,-0.07 1.99,-0.1 -0.06,4.62 -0.05,9.24 -0.1,13.86 -6.66,4.62 -13.51,8.95 -20.18,13.56 -7.13,-4.62 -14.56,-8.74 -21.78,-13.22 z"
       id="path2488"
       style="fill:#ffcc00;fill-opacity:1" /><path
       transform="translate(0,-0.5)"
       fill="#d6312a"
       d="m 280.35,158.14 c 7.58,4.11 14.62,9.28 22.55,12.69 6.27,-4.36 12.5,-8.88 19.32,-12.34 0.16,4.67 0.08,9.35 0.19,14.02 -4.69,4.07 -10.22,6.98 -15.24,10.6 -2.12,1.2 -4.61,3.79 -7.08,1.91 -6.52,-3.73 -12.7,-8.1 -19.56,-11.21 -0.41,-5.21 -0.29,-10.45 -0.18,-15.67 z"
       id="path2494"
       style="fill:#ffcc00;fill-opacity:1" /><path
       transform="translate(0,-1)"
       fill="#d6312a"
       d="m 280.36,177.82 c 7.22,4.35 14.53,8.55 21.74,12.94 6.87,-4.05 13.22,-8.93 20.2,-12.8 0.05,4.9 0,9.79 0.06,14.69 -5.6,3.98 -11.48,7.54 -17.08,11.51 -1.34,0.74 -2.94,2.26 -4.46,1.04 -6.81,-4.12 -13.73,-8.06 -20.52,-12.22 -0.04,-5.05 -0.04,-10.11 0.06,-15.16 z"
       id="path2500"
       style="fill:#ffcc00;fill-opacity:1" /><path
       transform="translate(0,-1)"
       fill="#d6312a"
       d="m 280.33,212.88 c -0.04,-5.98 -0.15,-11.95 0.04,-17.93 7.07,5.48 14.63,10.26 21.72,15.7 6.84,-4.92 13.04,-10.7 20.16,-15.24 0.13,5.61 0.08,11.22 0.11,16.84 -6.4,5.04 -13.4,9.24 -20.32,13.52 -7.29,-4.2 -14.44,-8.64 -21.71,-12.89 z"
       id="path2506"
       style="fill:#ffcc00;fill-opacity:1" /><path
       fill="#d6312a"
       d="m 280.59,230.56 c -0.73,-5.19 -0.21,-10.46 -0.2,-15.68 7.26,4.14 14.27,8.76 21.64,12.68 7.14,-3.51 13.19,-8.89 20.22,-12.62 0.09,5.06 0.1,10.12 0.11,15.18 -5.75,4.8 -11.94,9.04 -17.77,13.74 -0.04,40.11 -0.06,80.22 0.02,120.34 4.48,-3.32 8.67,-7 13.06,-10.43 -4.79,22.56 -10.24,44.98 -15.61,67.41 -3.99,-17.14 -8.79,-34.09 -13.06,-51.17 -1.3,-5.43 -3.04,-10.77 -3.82,-16.31 4.07,3.64 8.47,6.9 12.42,10.67 0.07,-10.46 0.73,-20.91 0.2,-31.35 0.08,-28.36 -0.29,-56.72 0.48,-85.05 -0.03,-1.92 -0.15,-4.22 -1.83,-5.48 -5.13,-4.18 -11.01,-7.42 -15.86,-11.93 z"
       id="path2512"
       style="fill:#ffcc00;fill-opacity:1" /></g><g
     id="g44"
     transform="matrix(-1.2659578,1.3428386,-1.349839,-1.1201851,2439.6889,1221.6635)"
     style="fill:#ffcc00;fill-opacity:1"
     inkscape:label="g44"><path
       fill="#d6312a"
       d="m 280.29,118.49 c 6.69,4.32 13.06,9.12 19.74,13.45 1.2,0.9 2.84,1.16 4.06,0.1 6.17,-4.25 11.65,-9.51 18.2,-13.24 0.05,5.73 0.05,11.46 0.01,17.19 -6.69,4.26 -13.06,9.15 -20.09,12.82 -4.18,-1.48 -7.73,-4.27 -11.57,-6.43 -3.39,-2.17 -7.18,-3.79 -10.19,-6.49 -0.48,-5.78 -0.06,-11.6 -0.16,-17.4 z"
       id="path39"
       style="fill:#ffcc00;fill-opacity:1" /><path
       fill="#d6312a"
       d="m 280.32,153.41 c -0.06,-5.17 -0.1,-10.35 0.07,-15.52 6.68,4.96 13.51,9.75 20.46,14.33 1.53,1.29 3.07,-0.3 4.3,-1.18 5.02,-4 10.21,-7.75 15.24,-11.73 0.5,-0.02 1.49,-0.07 1.99,-0.1 -0.06,4.62 -0.05,9.24 -0.1,13.86 -6.66,4.62 -13.51,8.95 -20.18,13.56 -7.13,-4.62 -14.56,-8.74 -21.78,-13.22 z"
       id="path40"
       style="fill:#ffcc00;fill-opacity:1" /><path
       transform="translate(0,-0.5)"
       fill="#d6312a"
       d="m 280.35,158.14 c 7.58,4.11 14.62,9.28 22.55,12.69 6.27,-4.36 12.5,-8.88 19.32,-12.34 0.16,4.67 0.08,9.35 0.19,14.02 -4.69,4.07 -10.22,6.98 -15.24,10.6 -2.12,1.2 -4.61,3.79 -7.08,1.91 -6.52,-3.73 -12.7,-8.1 -19.56,-11.21 -0.41,-5.21 -0.29,-10.45 -0.18,-15.67 z"
       id="path41"
       style="fill:#ffcc00;fill-opacity:1" /><path
       transform="translate(0,-1)"
       fill="#d6312a"
       d="m 280.36,177.82 c 7.22,4.35 14.53,8.55 21.74,12.94 6.87,-4.05 13.22,-8.93 20.2,-12.8 0.05,4.9 0,9.79 0.06,14.69 -5.6,3.98 -11.48,7.54 -17.08,11.51 -1.34,0.74 -2.94,2.26 -4.46,1.04 -6.81,-4.12 -13.73,-8.06 -20.52,-12.22 -0.04,-5.05 -0.04,-10.11 0.06,-15.16 z"
       id="path42"
       style="fill:#ffcc00;fill-opacity:1" /><path
       transform="translate(0,-1)"
       fill="#d6312a"
       d="m 280.33,212.88 c -0.04,-5.98 -0.15,-11.95 0.04,-17.93 7.07,5.48 14.63,10.26 21.72,15.7 6.84,-4.92 13.04,-10.7 20.16,-15.24 0.13,5.61 0.08,11.22 0.11,16.84 -6.4,5.04 -13.4,9.24 -20.32,13.52 -7.29,-4.2 -14.44,-8.64 -21.71,-12.89 z"
       id="path43"
       style="fill:#ffcc00;fill-opacity:1" /><path
       fill="#d6312a"
       d="m 280.59,230.56 c -0.73,-5.19 -0.21,-10.46 -0.2,-15.68 7.26,4.14 14.27,8.76 21.64,12.68 7.14,-3.51 13.19,-8.89 20.22,-12.62 0.09,5.06 0.1,10.12 0.11,15.18 -5.75,4.8 -11.94,9.04 -17.77,13.74 -0.04,40.11 -0.06,80.22 0.02,120.34 4.48,-3.32 8.67,-7 13.06,-10.43 -4.79,22.56 -10.24,44.98 -15.61,67.41 -3.99,-17.14 -8.79,-34.09 -13.06,-51.17 -1.3,-5.43 -3.04,-10.77 -3.82,-16.31 4.07,3.64 8.47,6.9 12.42,10.67 0.07,-10.46 0.73,-20.91 0.2,-31.35 0.08,-28.36 -0.29,-56.72 0.48,-85.05 -0.03,-1.92 -0.15,-4.22 -1.83,-5.48 -5.13,-4.18 -11.01,-7.42 -15.86,-11.93 z"
       id="path44"
       style="fill:#ffcc00;fill-opacity:1" /></g><g
     id="g50"
     transform="matrix(-1.2659578,1.3428386,-1.349839,-1.1201851,2397.3388,1266.7922)"
     style="fill:#ffcc00;fill-opacity:1"><path
       fill="#d6312a"
       d="m 280.29,118.49 c 6.69,4.32 13.06,9.12 19.74,13.45 1.2,0.9 2.84,1.16 4.06,0.1 6.17,-4.25 11.65,-9.51 18.2,-13.24 0.05,5.73 0.05,11.46 0.01,17.19 -6.69,4.26 -13.06,9.15 -20.09,12.82 -4.18,-1.48 -7.73,-4.27 -11.57,-6.43 -3.39,-2.17 -7.18,-3.79 -10.19,-6.49 -0.48,-5.78 -0.06,-11.6 -0.16,-17.4 z"
       id="path45"
       style="fill:#ffcc00;fill-opacity:1" /><path
       fill="#d6312a"
       d="m 280.32,153.41 c -0.06,-5.17 -0.1,-10.35 0.07,-15.52 6.68,4.96 13.51,9.75 20.46,14.33 1.53,1.29 3.07,-0.3 4.3,-1.18 5.02,-4 10.21,-7.75 15.24,-11.73 0.5,-0.02 1.49,-0.07 1.99,-0.1 -0.06,4.62 -0.05,9.24 -0.1,13.86 -6.66,4.62 -13.51,8.95 -20.18,13.56 -7.13,-4.62 -14.56,-8.74 -21.78,-13.22 z"
       id="path46"
       style="fill:#ffcc00;fill-opacity:1" /><path
       transform="translate(0,-0.5)"
       fill="#d6312a"
       d="m 280.35,158.14 c 7.58,4.11 14.62,9.28 22.55,12.69 6.27,-4.36 12.5,-8.88 19.32,-12.34 0.16,4.67 0.08,9.35 0.19,14.02 -4.69,4.07 -10.22,6.98 -15.24,10.6 -2.12,1.2 -4.61,3.79 -7.08,1.91 -6.52,-3.73 -12.7,-8.1 -19.56,-11.21 -0.41,-5.21 -0.29,-10.45 -0.18,-15.67 z"
       id="path47"
       style="fill:#ffcc00;fill-opacity:1" /><path
       transform="translate(0,-1)"
       fill="#d6312a"
       d="m 280.36,177.82 c 7.22,4.35 14.53,8.55 21.74,12.94 6.87,-4.05 13.22,-8.93 20.2,-12.8 0.05,4.9 0,9.79 0.06,14.69 -5.6,3.98 -11.48,7.54 -17.08,11.51 -1.34,0.74 -2.94,2.26 -4.46,1.04 -6.81,-4.12 -13.73,-8.06 -20.52,-12.22 -0.04,-5.05 -0.04,-10.11 0.06,-15.16 z"
       id="path48"
       style="fill:#ffcc00;fill-opacity:1" /><path
       transform="translate(0,-1)"
       fill="#d6312a"
       d="m 280.33,212.88 c -0.04,-5.98 -0.15,-11.95 0.04,-17.93 7.07,5.48 14.63,10.26 21.72,15.7 6.84,-4.92 13.04,-10.7 20.16,-15.24 0.13,5.61 0.08,11.22 0.11,16.84 -6.4,5.04 -13.4,9.24 -20.32,13.52 -7.29,-4.2 -14.44,-8.64 -21.71,-12.89 z"
       id="path49"
       style="fill:#ffcc00;fill-opacity:1" /><path
       fill="#d6312a"
       d="m 280.59,230.56 c -0.73,-5.19 -0.21,-10.46 -0.2,-15.68 7.26,4.14 14.27,8.76 21.64,12.68 7.14,-3.51 13.19,-8.89 20.22,-12.62 0.09,5.06 0.1,10.12 0.11,15.18 -5.75,4.8 -11.94,9.04 -17.77,13.74 -0.04,40.11 -0.06,80.22 0.02,120.34 4.48,-3.32 8.67,-7 13.06,-10.43 -4.79,22.56 -10.24,44.98 -15.61,67.41 -3.99,-17.14 -8.79,-34.09 -13.06,-51.17 -1.3,-5.43 -3.04,-10.77 -3.82,-16.31 4.07,3.64 8.47,6.9 12.42,10.67 0.07,-10.46 0.73,-20.91 0.2,-31.35 0.08,-28.36 -0.29,-56.72 0.48,-85.05 -0.03,-1.92 -0.15,-4.22 -1.83,-5.48 -5.13,-4.18 -11.01,-7.42 -15.86,-11.93 z"
       id="path50"
       style="fill:#ffcc00;fill-opacity:1" /></g><g
     id="g56"
     transform="matrix(-1.2659578,1.3428386,-1.349839,-1.1201851,2374.6072,1297.747)"
     style="display:inline;fill:#ffcc00;fill-opacity:1"><path
       fill="#d6312a"
       d="m 280.29,118.49 c 6.69,4.32 13.06,9.12 19.74,13.45 1.2,0.9 2.84,1.16 4.06,0.1 6.17,-4.25 11.65,-9.51 18.2,-13.24 0.05,5.73 0.05,11.46 0.01,17.19 -6.69,4.26 -13.06,9.15 -20.09,12.82 -4.18,-1.48 -7.73,-4.27 -11.57,-6.43 -3.39,-2.17 -7.18,-3.79 -10.19,-6.49 -0.48,-5.78 -0.06,-11.6 -0.16,-17.4 z"
       id="path51"
       style="fill:#ffcc00;fill-opacity:1" /><path
       fill="#d6312a"
       d="m 280.32,153.41 c -0.06,-5.17 -0.1,-10.35 0.07,-15.52 6.68,4.96 13.51,9.75 20.46,14.33 1.53,1.29 3.07,-0.3 4.3,-1.18 5.02,-4 10.21,-7.75 15.24,-11.73 0.5,-0.02 1.49,-0.07 1.99,-0.1 -0.06,4.62 -0.05,9.24 -0.1,13.86 -6.66,4.62 -13.51,8.95 -20.18,13.56 -7.13,-4.62 -14.56,-8.74 -21.78,-13.22 z"
       id="path52"
       style="fill:#ffcc00;fill-opacity:1" /><path
       transform="translate(0,-0.5)"
       fill="#d6312a"
       d="m 280.35,158.14 c 7.58,4.11 14.62,9.28 22.55,12.69 6.27,-4.36 12.5,-8.88 19.32,-12.34 0.16,4.67 0.08,9.35 0.19,14.02 -4.69,4.07 -10.22,6.98 -15.24,10.6 -2.12,1.2 -4.61,3.79 -7.08,1.91 -6.52,-3.73 -12.7,-8.1 -19.56,-11.21 -0.41,-5.21 -0.29,-10.45 -0.18,-15.67 z"
       id="path53"
       style="fill:#ffcc00;fill-opacity:1" /><path
       transform="translate(0,-1)"
       fill="#d6312a"
       d="m 280.36,177.82 c 7.22,4.35 14.53,8.55 21.74,12.94 6.87,-4.05 13.22,-8.93 20.2,-12.8 0.05,4.9 0,9.79 0.06,14.69 -5.6,3.98 -11.48,7.54 -17.08,11.51 -1.34,0.74 -2.94,2.26 -4.46,1.04 -6.81,-4.12 -13.73,-8.06 -20.52,-12.22 -0.04,-5.05 -0.04,-10.11 0.06,-15.16 z"
       id="path54"
       style="fill:#ffcc00;fill-opacity:1" /><path
       transform="translate(0,-1)"
       fill="#d6312a"
       d="m 280.33,212.88 c -0.04,-5.98 -0.15,-11.95 0.04,-17.93 7.07,5.48 14.63,10.26 21.72,15.7 6.84,-4.92 13.04,-10.7 20.16,-15.24 0.13,5.61 0.08,11.22 0.11,16.84 -6.4,5.04 -13.4,9.24 -20.32,13.52 -7.29,-4.2 -14.44,-8.64 -21.71,-12.89 z"
       id="path55"
       style="fill:#ffcc00;fill-opacity:1" /><path
       fill="#d6312a"
       d="m 280.59,230.56 c -0.73,-5.19 -0.21,-10.46 -0.2,-15.68 7.26,4.14 14.27,8.76 21.64,12.68 7.14,-3.51 13.19,-8.89 20.22,-12.62 0.09,5.06 0.1,10.12 0.11,15.18 -5.75,4.8 -11.94,9.04 -17.77,13.74 -0.04,40.11 -0.06,80.22 0.02,120.34 4.48,-3.32 8.67,-7 13.06,-10.43 -4.79,22.56 -10.24,44.98 -15.61,67.41 -3.99,-17.14 -8.79,-34.09 -13.06,-51.17 -1.3,-5.43 -3.04,-10.77 -3.82,-16.31 4.07,3.64 8.47,6.9 12.42,10.67 0.07,-10.46 0.73,-20.91 0.2,-31.35 0.08,-28.36 -0.29,-56.72 0.48,-85.05 -0.03,-1.92 -0.15,-4.22 -1.83,-5.48 -5.13,-4.18 -11.01,-7.42 -15.86,-11.93 z"
       id="path56"
       style="fill:#ffcc00;fill-opacity:1" /></g><path
     fill="#000000"
     d="m 1343.0786,353.72771 c -19.2845,51.93146 -32.5163,107.44324 -37.7941,165.1322 l 256.0064,70.51569 -11.943,45.80607 -246.5468,-67.90974 c -0.031,2.42076 -0.086,4.83388 -0.086,7.2571 0,35.66381 2.9523,70.61721 8.5906,104.61902 h 232.4092 v 47.41737 h -222.6482 c 8.3143,33.80898 19.3291,66.49887 32.8077,97.81109 l 195.4738,-53.83462 11.9432,45.80096 -186.7251,51.43417 c 14.7967,28.15558 31.6399,54.98662 50.3496,80.27479 l 152.8879,-90.72909 23.0642,41.06348 -146.1907,86.76058 c 19.2107,22.14682 39.942,42.84482 62.041,61.91382 l 110.4206,-113.49005 32.6201,33.53238 -106.2858,109.24247 c 22.1262,16.2547 45.3582,30.9948 69.5801,44.0424 l 70.9328,-126.29411 39.9568,23.71521 -69.0887,122.9952 c 30.9686,13.6187 63.2703,24.6057 96.6605,32.657 2.444,9.0486 5.1349,18.0236 8.0231,26.8793 -30.512,25.3567 -59.6489,51.9924 -86.6975,80.5081 -11.0048,-5.4808 -23.3529,-8.5587 -36.4118,-8.5587 -46.1801,0 -83.6213,38.4778 -83.6213,85.951 0,4.3517 0.3208,8.6323 0.9306,12.8141 4.9864,-29.2162 29.7714,-51.4213 59.624,-51.4213 7.6602,0 14.9796,1.4767 21.7237,4.1436 -24.9402,30.7082 -47.3798,63.6392 -66.4202,99.5441 34.3063,-19.1424 68.3409,-39.9775 101.5831,-62.8374 2.3699,6.6734 3.6658,13.8748 3.6658,21.3907 0,30.759 -21.7138,56.2908 -50.241,61.3251 4.1596,0.6547 8.4229,0.9972 12.7577,0.9972 46.1877,0 83.6191,-38.4881 83.6191,-85.9561 0,-10.5811 -1.8687,-20.7055 -5.2681,-30.0637 24.7676,-18.9472 48.9352,-39.1529 72.2313,-60.8582 7.3516,14.4761 15.3128,27.9982 23.822,40.1374 l -107.4582,221.1895 c 119.1521,57.0166 285.6173,57.7524 389.7233,0 L 1999.098,1314.5865 c 9.1882,-12.2051 17.7985,-26.0089 25.7377,-40.9545 21.1733,19.3278 43.0229,37.4782 65.376,54.5756 -3.3944,9.3503 -5.2581,19.4621 -5.2581,30.0332 0,47.468 37.4363,85.951 83.6216,85.951 4.3396,0 8.6055,-0.3349 12.7674,-0.9896 -28.5369,-5.0318 -50.2483,-30.5636 -50.2483,-61.325 0,-7.5211 1.296,-14.73 3.6782,-21.4035 33.2371,22.8523 67.262,43.7025 101.5657,62.8451 -19.033,-35.9 -41.4231,-68.8563 -66.3486,-99.5644 6.7294,-2.6516 14.0265,-4.1184 21.662,-4.1184 29.8453,0 54.6302,22.2027 59.6167,51.4138 0.6073,-4.1792 0.9306,-8.4548 0.9306,-12.8065 0,-47.4757 -37.4387,-85.9511 -83.6237,-85.9511 -13.022,0 -25.3479,3.0577 -36.338,8.5133 -24.7032,-26.0597 -51.1988,-50.5158 -78.8619,-73.8906 4.7841,-14.0068 9.03,-28.3687 12.6689,-42.8472 19.5265,-6.0089 38.6335,-13.0426 57.2714,-21.018 l -70.3476,-125.2383 39.9566,-23.71511 72.4288,128.94321 c 24.6367,-12.9665 48.2735,-27.6582 70.78,-43.9183 l -108.979,-112.02073 32.6224,-33.53504 113.3733,116.52487 c 22.5752,-19.1754 43.7435,-40.0536 63.359,-62.42124 l -150.4613,-89.29299 23.0642,-41.06103 157.3684,93.38843 c 19.1563,-25.59534 36.402,-52.79679 51.5198,-81.37611 l -192.3782,-52.98952 11.9407,-45.80099 201.2749,55.43565 c 13.7948,-31.80178 25.0737,-65.02219 33.5335,-99.41224 H 2243.196 V 679.143 H 2482.1 c 5.6333,-34.00192 8.5906,-68.95274 8.5906,-104.61902 0,-3.01955 -0.061,-6.02899 -0.1081,-9.04092 l -253.0243,69.69861 -11.9383,-45.81112 262.3484,-72.25642 c -5.3815,-57.06729 -18.564,-111.97768 -37.6562,-163.38642 v 0 c -65.4598,105.32956 -206.3553,187.60381 -382.0507,220.80895 31.2773,39.59175 50.4631,90.13018 50.4631,145.22575 0,79.1584 -38.8137,148.99402 -97.7665,190.30878 -52.5071,-31.48205 -105.9204,-73.27643 -112.3707,-111.17577 l 43.5781,-9.66774 -5.5173,-26.26764 c 38.6831,-28.76208 83.7746,-23.18728 131.9048,-0.0258 l -45.1803,-102.54847 -103.4418,22.93858 -7.0258,-33.46393 v 0 l -199.6358,44.28609 50.5026,76.79854 c -21.2176,49.93181 -6.7072,105.76079 13.4539,148.59303 -67.1557,-39.50813 -112.5486,-114.18022 -112.5486,-199.77343 0,-55.09569 19.1861,-105.63401 50.4583,-145.22329 -175.6857,-33.19744 -316.5787,-115.47177 -382.0411,-220.80134 z m 534.3291,336.38215 c 12.9455,-0.14212 24.6368,9.06628 27.4757,22.58323 3.2387,15.44043 -6.3122,30.66258 -21.3386,33.99431 -15.0264,3.3316 -29.8331,-6.4858 -33.0744,-21.93127 -3.2436,-15.44031 6.3099,-30.66763 21.3338,-34.00181 1.876,-0.41359 3.7522,-0.62169 5.6035,-0.64199 z"
     id="path1-6"
     style="display:inline;fill:#ffcc00;fill-opacity:1;stroke-width:2.50279" /><g
     id="g62"
     transform="matrix(1.2659578,1.3428386,1.349839,-1.1201851,1356.4381,1230.893)"
     style="fill:#ffcc00;fill-opacity:1"
     inkscape:label="g62"><path
       fill="#d6312a"
       d="m 280.29,118.49 c 6.69,4.32 13.06,9.12 19.74,13.45 1.2,0.9 2.84,1.16 4.06,0.1 6.17,-4.25 11.65,-9.51 18.2,-13.24 0.05,5.73 0.05,11.46 0.01,17.19 -6.69,4.26 -13.06,9.15 -20.09,12.82 -4.18,-1.48 -7.73,-4.27 -11.57,-6.43 -3.39,-2.17 -7.18,-3.79 -10.19,-6.49 -0.48,-5.78 -0.06,-11.6 -0.16,-17.4 z"
       id="path57"
       style="fill:#ffcc00;fill-opacity:1" /><path
       fill="#d6312a"
       d="m 280.32,153.41 c -0.06,-5.17 -0.1,-10.35 0.07,-15.52 6.68,4.96 13.51,9.75 20.46,14.33 1.53,1.29 3.07,-0.3 4.3,-1.18 5.02,-4 10.21,-7.75 15.24,-11.73 0.5,-0.02 1.49,-0.07 1.99,-0.1 -0.06,4.62 -0.05,9.24 -0.1,13.86 -6.66,4.62 -13.51,8.95 -20.18,13.56 -7.13,-4.62 -14.56,-8.74 -21.78,-13.22 z"
       id="path58"
       style="fill:#ffcc00;fill-opacity:1" /><path
       transform="translate(0,-0.5)"
       fill="#d6312a"
       d="m 280.35,158.14 c 7.58,4.11 14.62,9.28 22.55,12.69 6.27,-4.36 12.5,-8.88 19.32,-12.34 0.16,4.67 0.08,9.35 0.19,14.02 -4.69,4.07 -10.22,6.98 -15.24,10.6 -2.12,1.2 -4.61,3.79 -7.08,1.91 -6.52,-3.73 -12.7,-8.1 -19.56,-11.21 -0.41,-5.21 -0.29,-10.45 -0.18,-15.67 z"
       id="path59"
       style="fill:#ffcc00;fill-opacity:1" /><path
       transform="translate(0,-1)"
       fill="#d6312a"
       d="m 280.36,177.82 c 7.22,4.35 14.53,8.55 21.74,12.94 6.87,-4.05 13.22,-8.93 20.2,-12.8 0.05,4.9 0,9.79 0.06,14.69 -5.6,3.98 -11.48,7.54 -17.08,11.51 -1.34,0.74 -2.94,2.26 -4.46,1.04 -6.81,-4.12 -13.73,-8.06 -20.52,-12.22 -0.04,-5.05 -0.04,-10.11 0.06,-15.16 z"
       id="path60"
       style="fill:#ffcc00;fill-opacity:1" /><path
       transform="translate(0,-1)"
       fill="#d6312a"
       d="m 280.33,212.88 c -0.04,-5.98 -0.15,-11.95 0.04,-17.93 7.07,5.48 14.63,10.26 21.72,15.7 6.84,-4.92 13.04,-10.7 20.16,-15.24 0.13,5.61 0.08,11.22 0.11,16.84 -6.4,5.04 -13.4,9.24 -20.32,13.52 -7.29,-4.2 -14.44,-8.64 -21.71,-12.89 z"
       id="path61"
       style="fill:#ffcc00;fill-opacity:1" /><path
       fill="#d6312a"
       d="m 280.59,230.56 c -0.73,-5.19 -0.21,-10.46 -0.2,-15.68 7.26,4.14 14.27,8.76 21.64,12.68 7.14,-3.51 13.19,-8.89 20.22,-12.62 0.09,5.06 0.1,10.12 0.11,15.18 -5.75,4.8 -11.94,9.04 -17.77,13.74 -0.04,40.11 -0.06,80.22 0.02,120.34 4.48,-3.32 8.67,-7 13.06,-10.43 -4.79,22.56 -10.24,44.98 -15.61,67.41 -3.99,-17.14 -8.79,-34.09 -13.06,-51.17 -1.3,-5.43 -3.04,-10.77 -3.82,-16.31 4.07,3.64 8.47,6.9 12.42,10.67 0.07,-10.46 0.73,-20.91 0.2,-31.35 0.08,-28.36 -0.29,-56.72 0.48,-85.05 -0.03,-1.92 -0.15,-4.22 -1.83,-5.48 -5.13,-4.18 -11.01,-7.42 -15.86,-11.93 z"
       id="path62"
       style="fill:#ffcc00;fill-opacity:1" /></g><g
     id="g68"
     transform="matrix(1.2659578,1.3428386,1.349839,-1.1201851,1383.4425,1256.8971)"
     style="fill:#ffcc00;fill-opacity:1"
     inkscape:label="g62"><path
       fill="#d6312a"
       d="m 280.29,118.49 c 6.69,4.32 13.06,9.12 19.74,13.45 1.2,0.9 2.84,1.16 4.06,0.1 6.17,-4.25 11.65,-9.51 18.2,-13.24 0.05,5.73 0.05,11.46 0.01,17.19 -6.69,4.26 -13.06,9.15 -20.09,12.82 -4.18,-1.48 -7.73,-4.27 -11.57,-6.43 -3.39,-2.17 -7.18,-3.79 -10.19,-6.49 -0.48,-5.78 -0.06,-11.6 -0.16,-17.4 z"
       id="path63"
       style="fill:#ffcc00;fill-opacity:1" /><path
       fill="#d6312a"
       d="m 280.32,153.41 c -0.06,-5.17 -0.1,-10.35 0.07,-15.52 6.68,4.96 13.51,9.75 20.46,14.33 1.53,1.29 3.07,-0.3 4.3,-1.18 5.02,-4 10.21,-7.75 15.24,-11.73 0.5,-0.02 1.49,-0.07 1.99,-0.1 -0.06,4.62 -0.05,9.24 -0.1,13.86 -6.66,4.62 -13.51,8.95 -20.18,13.56 -7.13,-4.62 -14.56,-8.74 -21.78,-13.22 z"
       id="path64"
       style="fill:#ffcc00;fill-opacity:1" /><path
       transform="translate(0,-0.5)"
       fill="#d6312a"
       d="m 280.35,158.14 c 7.58,4.11 14.62,9.28 22.55,12.69 6.27,-4.36 12.5,-8.88 19.32,-12.34 0.16,4.67 0.08,9.35 0.19,14.02 -4.69,4.07 -10.22,6.98 -15.24,10.6 -2.12,1.2 -4.61,3.79 -7.08,1.91 -6.52,-3.73 -12.7,-8.1 -19.56,-11.21 -0.41,-5.21 -0.29,-10.45 -0.18,-15.67 z"
       id="path65"
       style="fill:#ffcc00;fill-opacity:1" /><path
       transform="translate(0,-1)"
       fill="#d6312a"
       d="m 280.36,177.82 c 7.22,4.35 14.53,8.55 21.74,12.94 6.87,-4.05 13.22,-8.93 20.2,-12.8 0.05,4.9 0,9.79 0.06,14.69 -5.6,3.98 -11.48,7.54 -17.08,11.51 -1.34,0.74 -2.94,2.26 -4.46,1.04 -6.81,-4.12 -13.73,-8.06 -20.52,-12.22 -0.04,-5.05 -0.04,-10.11 0.06,-15.16 z"
       id="path66"
       style="fill:#ffcc00;fill-opacity:1" /><path
       transform="translate(0,-1)"
       fill="#d6312a"
       d="m 280.33,212.88 c -0.04,-5.98 -0.15,-11.95 0.04,-17.93 7.07,5.48 14.63,10.26 21.72,15.7 6.84,-4.92 13.04,-10.7 20.16,-15.24 0.13,5.61 0.08,11.22 0.11,16.84 -6.4,5.04 -13.4,9.24 -20.32,13.52 -7.29,-4.2 -14.44,-8.64 -21.71,-12.89 z"
       id="path67"
       style="fill:#ffcc00;fill-opacity:1" /><path
       fill="#d6312a"
       d="m 280.59,230.56 c -0.73,-5.19 -0.21,-10.46 -0.2,-15.68 7.26,4.14 14.27,8.76 21.64,12.68 7.14,-3.51 13.19,-8.89 20.22,-12.62 0.09,5.06 0.1,10.12 0.11,15.18 -5.75,4.8 -11.94,9.04 -17.77,13.74 -0.04,40.11 -0.06,80.22 0.02,120.34 4.48,-3.32 8.67,-7 13.06,-10.43 -4.79,22.56 -10.24,44.98 -15.61,67.41 -3.99,-17.14 -8.79,-34.09 -13.06,-51.17 -1.3,-5.43 -3.04,-10.77 -3.82,-16.31 4.07,3.64 8.47,6.9 12.42,10.67 0.07,-10.46 0.73,-20.91 0.2,-31.35 0.08,-28.36 -0.29,-56.72 0.48,-85.05 -0.03,-1.92 -0.15,-4.22 -1.83,-5.48 -5.13,-4.18 -11.01,-7.42 -15.86,-11.93 z"
       id="path68"
       style="fill:#ffcc00;fill-opacity:1" /></g><g
     id="g74"
     transform="matrix(1.2659578,1.3428386,1.349839,-1.1201851,1413.4474,1290.4027)"
     style="fill:#ffcc00;fill-opacity:1"
     inkscape:label="g62"><path
       fill="#d6312a"
       d="m 280.29,118.49 c 6.69,4.32 13.06,9.12 19.74,13.45 1.2,0.9 2.84,1.16 4.06,0.1 6.17,-4.25 11.65,-9.51 18.2,-13.24 0.05,5.73 0.05,11.46 0.01,17.19 -6.69,4.26 -13.06,9.15 -20.09,12.82 -4.18,-1.48 -7.73,-4.27 -11.57,-6.43 -3.39,-2.17 -7.18,-3.79 -10.19,-6.49 -0.48,-5.78 -0.06,-11.6 -0.16,-17.4 z"
       id="path69"
       style="fill:#ffcc00;fill-opacity:1" /><path
       fill="#d6312a"
       d="m 280.32,153.41 c -0.06,-5.17 -0.1,-10.35 0.07,-15.52 6.68,4.96 13.51,9.75 20.46,14.33 1.53,1.29 3.07,-0.3 4.3,-1.18 5.02,-4 10.21,-7.75 15.24,-11.73 0.5,-0.02 1.49,-0.07 1.99,-0.1 -0.06,4.62 -0.05,9.24 -0.1,13.86 -6.66,4.62 -13.51,8.95 -20.18,13.56 -7.13,-4.62 -14.56,-8.74 -21.78,-13.22 z"
       id="path70"
       style="fill:#ffcc00;fill-opacity:1" /><path
       transform="translate(0,-0.5)"
       fill="#d6312a"
       d="m 280.35,158.14 c 7.58,4.11 14.62,9.28 22.55,12.69 6.27,-4.36 12.5,-8.88 19.32,-12.34 0.16,4.67 0.08,9.35 0.19,14.02 -4.69,4.07 -10.22,6.98 -15.24,10.6 -2.12,1.2 -4.61,3.79 -7.08,1.91 -6.52,-3.73 -12.7,-8.1 -19.56,-11.21 -0.41,-5.21 -0.29,-10.45 -0.18,-15.67 z"
       id="path71"
       style="fill:#ffcc00;fill-opacity:1" /><path
       transform="translate(0,-1)"
       fill="#d6312a"
       d="m 280.36,177.82 c 7.22,4.35 14.53,8.55 21.74,12.94 6.87,-4.05 13.22,-8.93 20.2,-12.8 0.05,4.9 0,9.79 0.06,14.69 -5.6,3.98 -11.48,7.54 -17.08,11.51 -1.34,0.74 -2.94,2.26 -4.46,1.04 -6.81,-4.12 -13.73,-8.06 -20.52,-12.22 -0.04,-5.05 -0.04,-10.11 0.06,-15.16 z"
       id="path72"
       style="fill:#ffcc00;fill-opacity:1" /><path
       transform="translate(0,-1)"
       fill="#d6312a"
       d="m 280.33,212.88 c -0.04,-5.98 -0.15,-11.95 0.04,-17.93 7.07,5.48 14.63,10.26 21.72,15.7 6.84,-4.92 13.04,-10.7 20.16,-15.24 0.13,5.61 0.08,11.22 0.11,16.84 -6.4,5.04 -13.4,9.24 -20.32,13.52 -7.29,-4.2 -14.44,-8.64 -21.71,-12.89 z"
       id="path73"
       style="fill:#ffcc00;fill-opacity:1" /><path
       fill="#d6312a"
       d="m 280.59,230.56 c -0.73,-5.19 -0.21,-10.46 -0.2,-15.68 7.26,4.14 14.27,8.76 21.64,12.68 7.14,-3.51 13.19,-8.89 20.22,-12.62 0.09,5.06 0.1,10.12 0.11,15.18 -5.75,4.8 -11.94,9.04 -17.77,13.74 -0.04,40.11 -0.06,80.22 0.02,120.34 4.48,-3.32 8.67,-7 13.06,-10.43 -4.79,22.56 -10.24,44.98 -15.61,67.41 -3.99,-17.14 -8.79,-34.09 -13.06,-51.17 -1.3,-5.43 -3.04,-10.77 -3.82,-16.31 4.07,3.64 8.47,6.9 12.42,10.67 0.07,-10.46 0.73,-20.91 0.2,-31.35 0.08,-28.36 -0.29,-56.72 0.48,-85.05 -0.03,-1.92 -0.15,-4.22 -1.83,-5.48 -5.13,-4.18 -11.01,-7.42 -15.86,-11.93 z"
       id="path74"
       style="fill:#ffcc00;fill-opacity:1" /></g><g
     id="g80"
     transform="matrix(1.2659578,1.3428386,1.349839,-1.1201851,1434.9508,1303.4048)"
     style="fill:#ffcc00;fill-opacity:1"
     inkscape:label="g62"><path
       fill="#d6312a"
       d="m 280.29,118.49 c 6.69,4.32 13.06,9.12 19.74,13.45 1.2,0.9 2.84,1.16 4.06,0.1 6.17,-4.25 11.65,-9.51 18.2,-13.24 0.05,5.73 0.05,11.46 0.01,17.19 -6.69,4.26 -13.06,9.15 -20.09,12.82 -4.18,-1.48 -7.73,-4.27 -11.57,-6.43 -3.39,-2.17 -7.18,-3.79 -10.19,-6.49 -0.48,-5.78 -0.06,-11.6 -0.16,-17.4 z"
       id="path75"
       style="fill:#ffcc00;fill-opacity:1" /><path
       fill="#d6312a"
       d="m 280.32,153.41 c -0.06,-5.17 -0.1,-10.35 0.07,-15.52 6.68,4.96 13.51,9.75 20.46,14.33 1.53,1.29 3.07,-0.3 4.3,-1.18 5.02,-4 10.21,-7.75 15.24,-11.73 0.5,-0.02 1.49,-0.07 1.99,-0.1 -0.06,4.62 -0.05,9.24 -0.1,13.86 -6.66,4.62 -13.51,8.95 -20.18,13.56 -7.13,-4.62 -14.56,-8.74 -21.78,-13.22 z"
       id="path76"
       style="fill:#ffcc00;fill-opacity:1" /><path
       transform="translate(0,-0.5)"
       fill="#d6312a"
       d="m 280.35,158.14 c 7.58,4.11 14.62,9.28 22.55,12.69 6.27,-4.36 12.5,-8.88 19.32,-12.34 0.16,4.67 0.08,9.35 0.19,14.02 -4.69,4.07 -10.22,6.98 -15.24,10.6 -2.12,1.2 -4.61,3.79 -7.08,1.91 -6.52,-3.73 -12.7,-8.1 -19.56,-11.21 -0.41,-5.21 -0.29,-10.45 -0.18,-15.67 z"
       id="path77"
       style="fill:#ffcc00;fill-opacity:1" /><path
       transform="translate(0,-1)"
       fill="#d6312a"
       d="m 280.36,177.82 c 7.22,4.35 14.53,8.55 21.74,12.94 6.87,-4.05 13.22,-8.93 20.2,-12.8 0.05,4.9 0,9.79 0.06,14.69 -5.6,3.98 -11.48,7.54 -17.08,11.51 -1.34,0.74 -2.94,2.26 -4.46,1.04 -6.81,-4.12 -13.73,-8.06 -20.52,-12.22 -0.04,-5.05 -0.04,-10.11 0.06,-15.16 z"
       id="path78"
       style="fill:#ffcc00;fill-opacity:1" /><path
       transform="translate(0,-1)"
       fill="#d6312a"
       d="m 280.33,212.88 c -0.04,-5.98 -0.15,-11.95 0.04,-17.93 7.07,5.48 14.63,10.26 21.72,15.7 6.84,-4.92 13.04,-10.7 20.16,-15.24 0.13,5.61 0.08,11.22 0.11,16.84 -6.4,5.04 -13.4,9.24 -20.32,13.52 -7.29,-4.2 -14.44,-8.64 -21.71,-12.89 z"
       id="path79"
       style="fill:#ffcc00;fill-opacity:1" /><path
       fill="#d6312a"
       d="m 280.59,230.56 c -0.73,-5.19 -0.21,-10.46 -0.2,-15.68 7.26,4.14 14.27,8.76 21.64,12.68 7.14,-3.51 13.19,-8.89 20.22,-12.62 0.09,5.06 0.1,10.12 0.11,15.18 -5.75,4.8 -11.94,9.04 -17.77,13.74 -0.04,40.11 -0.06,80.22 0.02,120.34 4.48,-3.32 8.67,-7 13.06,-10.43 -4.79,22.56 -10.24,44.98 -15.61,67.41 -3.99,-17.14 -8.79,-34.09 -13.06,-51.17 -1.3,-5.43 -3.04,-10.77 -3.82,-16.31 4.07,3.64 8.47,6.9 12.42,10.67 0.07,-10.46 0.73,-20.91 0.2,-31.35 0.08,-28.36 -0.29,-56.72 0.48,-85.05 -0.03,-1.92 -0.15,-4.22 -1.83,-5.48 -5.13,-4.18 -11.01,-7.42 -15.86,-11.93 z"
       id="path80"
       style="fill:#ffcc00;fill-opacity:1" /></g></svg>
